<svg xmlns="http://www.w3.org/2000/svg" viewBox="0 0 1271.15 276" width="1271.15" height="276" fill="none">
<svg x="0" y="0" width="1271.15" height="160" viewBox="0 0 1271.15 160" preserveAspectRatio="xMidYMid meet" overflow="visible"><g id="Wordmark">
<path id="Vector" d="M1160.63 160C1135.76 160 1115.03 157.967 1098.45 153.9C1082.02 149.833 1069.67 143.342 1061.37 134.427C1053.24 125.511 1049.17 113.78 1049.17 99.2341C1049.17 84.6878 1053.24 72.9569 1061.37 64.0415C1069.67 54.9696 1082.02 48.4003 1098.45 44.3336C1115.03 40.1105 1135.76 37.9989 1160.63 37.9989C1185.35 37.9989 1205.84 40.1105 1222.11 44.3336C1238.54 48.4003 1250.82 54.9696 1258.95 64.0415C1267.09 72.9569 1271.15 84.6878 1271.15 99.2341C1271.15 113.78 1267.09 125.511 1258.95 134.427C1250.82 143.342 1238.54 149.833 1222.11 153.9C1205.84 157.967 1185.35 160 1160.63 160ZM1160.63 125.98C1172.21 125.98 1181.91 125.042 1189.73 123.165C1197.55 121.132 1203.49 118.16 1207.56 114.25C1211.63 110.183 1213.66 105.178 1213.66 99.2341C1213.66 93.2904 1211.63 88.2853 1207.56 84.2186C1203.65 80.1519 1197.79 77.1018 1189.96 75.0685C1182.14 73.0351 1172.36 72.0184 1160.63 72.0184C1149.06 72.0184 1139.2 73.0351 1131.07 75.0685C1123.09 77.1018 1116.99 80.1519 1112.76 84.2186C1108.7 88.1288 1106.66 93.134 1106.66 99.2341C1106.66 105.178 1108.7 110.183 1112.76 114.25C1116.83 118.16 1122.85 121.132 1130.83 123.165C1138.97 125.042 1148.9 125.98 1160.63 125.98Z" fill="var(--fill-0, #B28C4D)"/>
<path id="Vector_2" d="M939.173 106.507C939.173 117.769 935.653 127.388 928.614 135.365C921.574 143.342 910.467 149.442 895.293 153.665C880.119 157.888 860.408 160 836.161 160C811.914 160 791.265 158.045 774.213 154.135C757.318 150.224 744.413 143.811 735.496 134.896C726.736 125.98 722.355 114.093 722.355 99.2341C722.355 84.375 726.736 72.4877 735.496 63.5722C744.413 54.5003 757.318 48.0092 774.213 44.099C791.265 40.0323 811.914 37.9989 836.161 37.9989C860.408 37.9989 880.041 40.1105 895.058 44.3336C910.076 48.5567 921.105 54.6567 928.144 62.6337C935.184 70.6107 938.782 80.1519 938.938 91.2571H887.315C884.812 85.157 879.18 80.4647 870.42 77.18C861.66 73.739 850.24 72.0184 836.161 72.0184C824.741 72.0184 814.808 72.8787 806.36 74.5992C797.913 76.1634 791.343 78.9006 786.65 82.8109C782.113 86.7211 779.845 92.1956 779.845 99.2341C779.845 106.116 782.113 111.512 786.65 115.423C791.186 119.333 797.678 122.07 806.126 123.634C814.573 125.198 824.585 125.98 836.161 125.98C850.24 125.98 861.66 124.338 870.42 121.054C879.337 117.612 885.047 112.764 887.55 106.507H939.173Z" fill="var(--fill-0, #B28C4D)"/>
<path id="Vector_3" d="M326.837 41.5182H383.153V156.481H326.837V41.5182ZM443.693 84.9224C433.525 84.9224 424.217 85.8609 415.77 87.7378C407.322 89.6148 400.126 91.8827 394.182 94.5417C388.237 97.0443 383.779 99.5469 380.807 102.049L380.337 90.7878C380.807 87.5032 382.058 83.6711 384.092 79.2916C386.125 74.7556 388.863 70.1415 392.304 65.4492C395.746 60.6004 399.97 56.1427 404.976 52.076C409.982 47.8528 415.691 44.49 422.105 41.9874C428.675 39.3284 435.871 37.9989 443.693 37.9989V84.9224Z" fill="var(--fill-0, #B28C4D)"/>
<path id="Vector_4" d="M160.97 115.188H216.348C214.94 124.26 210.404 132.159 202.738 138.884C195.229 145.61 184.201 150.85 169.653 154.604C155.261 158.201 136.88 160 114.51 160C90.8881 160 70.4735 158.123 53.2657 154.369C36.2144 150.615 23.074 144.281 13.8444 135.365C4.6148 126.45 0 114.406 0 99.2341C0 84.2185 4.45837 72.253 13.3751 63.3376C22.4483 54.2657 35.5105 47.7746 52.5618 43.8643C69.6131 39.954 90.2623 37.9989 114.51 37.9989C138.288 37.9989 157.764 40.1104 172.938 44.3335C188.112 48.5567 199.297 55.4388 206.493 64.9799C213.689 74.3646 217.13 87.1122 216.817 103.223H57.2548C58.037 107.289 60.227 111.043 63.825 114.484C67.5794 117.925 73.2893 120.741 80.9545 122.93C88.7762 124.964 99.1791 125.98 112.163 125.98C125.616 125.98 136.645 125.042 145.249 123.165C154.009 121.288 159.25 118.629 160.97 115.188ZM112.163 72.0184C95.5811 72.0184 82.91 73.8172 74.1497 77.4146C65.5458 81.0121 60.4617 84.6096 58.8974 88.207H162.144C161.049 84.1403 156.669 80.4647 149.003 77.18C141.338 73.7389 129.058 72.0184 112.163 72.0184Z" fill="var(--fill-0, #B28C4D)"/>
<g id="I">
<path id="Vector_5" d="M554.538 41.5184H610.854V156.481H554.538V41.5184Z" fill="var(--fill-0, #B28C4D)"/>
<path id="pingo" d="M583.282 29.3272C589.628 29.3272 594.945 28.8172 599.234 27.7971C603.522 26.692 606.781 25.0769 609.011 22.9517C611.241 20.7416 612.356 18.0214 612.356 14.7911C612.356 11.5609 611.241 8.84066 609.011 6.6305C606.867 4.42033 603.651 2.76271 599.362 1.65763C595.074 0.552542 589.714 0 583.282 0C576.935 0 571.532 0.552542 567.072 1.65763C562.698 2.76271 559.353 4.42033 557.038 6.6305C554.808 8.75565 553.693 11.4759 553.693 14.7911C553.693 18.0214 554.808 20.7416 557.038 22.9517C559.268 25.0769 562.569 26.692 566.943 27.7971C571.403 28.8172 576.849 29.3272 583.282 29.3272Z" fill="var(--fill-0, #B28C4D)"/>
</g>
</g></svg><svg x="315.5" y="204.7" width="640" height="71.26" viewBox="0 0 640 71.259" preserveAspectRatio="xMidYMid meet" overflow="visible"><g id="Advogados">
<path id="Vector" d="M611.255 42.6762H617.115C617.273 44.946 618.118 46.7934 619.649 48.2186C621.233 49.6438 623.503 50.3564 626.459 50.3564C628.254 50.3564 629.653 50.1188 630.656 49.6438C631.712 49.1687 632.477 48.5353 632.952 47.7435C633.427 46.899 633.665 45.9753 633.665 44.9724C633.665 43.7583 633.348 42.8082 632.715 42.122C632.134 41.383 631.316 40.776 630.26 40.3009C629.257 39.8259 628.096 39.3772 626.776 38.9549C625.245 38.3743 623.661 37.7673 622.024 37.1339C620.441 36.4477 618.936 35.6559 617.511 34.7586C616.138 33.8085 615.029 32.6736 614.185 31.354C613.34 29.9816 612.918 28.3453 612.918 26.445C612.918 24.8615 613.235 23.3835 613.868 22.0111C614.502 20.586 615.399 19.3719 616.56 18.369C617.775 17.3133 619.174 16.4952 620.757 15.9145C622.394 15.3339 624.189 15.0436 626.142 15.0436C628.782 15.0436 630.999 15.5714 632.794 16.6271C634.642 17.6828 636.041 19.1872 636.991 21.1402C637.994 23.0404 638.522 25.2574 638.575 27.791H633.111C632.741 25.4157 631.976 23.7002 630.814 22.6446C629.706 21.5361 628.096 20.9818 625.984 20.9818C623.819 20.9818 622.156 21.4569 620.995 22.407C619.834 23.3571 619.253 24.624 619.253 26.2075C619.253 27.3688 619.675 28.3453 620.52 29.137C621.365 29.876 622.447 30.5622 623.767 31.1956C625.139 31.7763 626.591 32.3833 628.122 33.0167C629.653 33.6501 631.131 34.2835 632.556 34.9169C633.982 35.5503 635.249 36.2893 636.357 37.1339C637.466 37.9784 638.337 39.0341 638.971 40.3009C639.657 41.515 640 43.0457 640 44.8932C640 47.1101 639.472 49.0895 638.416 50.8314C637.413 52.5205 635.909 53.8401 633.903 54.7903C631.949 55.7404 629.547 56.2154 626.697 56.2154C624.11 56.2154 621.892 55.8987 620.045 55.2653C618.25 54.5791 616.745 53.7082 615.531 52.6525C614.317 51.544 613.367 50.3828 612.68 49.1687C612.047 47.9547 611.624 46.767 611.413 45.6058C611.202 44.4445 611.149 43.468 611.255 42.6762Z" fill="var(--fill-0, #B28C4D)"/>
<path id="Vector_2" d="M554.198 56.2154C550.819 56.2154 547.652 55.3973 544.695 53.761C541.739 52.1246 539.337 49.7757 537.489 46.7142C535.694 43.6 534.797 39.9315 534.797 35.7087C534.797 31.4859 535.694 27.8438 537.489 24.7823C539.337 21.668 541.739 19.2664 544.695 17.5773C547.652 15.8882 550.819 15.0436 554.198 15.0436C557.577 15.0436 560.718 15.8882 563.621 17.5773C566.578 19.2664 568.953 21.668 570.748 24.7823C572.543 27.8438 573.441 31.4859 573.441 35.7087C573.441 39.9315 572.543 43.6 570.748 46.7142C568.953 49.7757 566.578 52.1246 563.621 53.761C560.718 55.3973 557.577 56.2154 554.198 56.2154ZM554.198 50.2772C556.415 50.2772 558.5 49.723 560.454 48.6145C562.407 47.506 563.991 45.8697 565.205 43.7055C566.472 41.4886 567.106 38.823 567.106 35.7087C567.106 32.5944 566.472 29.9552 565.205 27.791C563.991 25.5741 562.407 23.885 560.454 22.7237C558.5 21.5625 556.415 20.9818 554.198 20.9818C551.981 20.9818 549.869 21.5625 547.863 22.7237C545.91 23.8322 544.299 25.4949 543.032 27.7119C541.765 29.876 541.132 32.5416 541.132 35.7087C541.132 38.823 541.739 41.4886 542.953 43.7055C544.22 45.8697 545.857 47.506 547.863 48.6145C549.869 49.723 551.981 50.2772 554.198 50.2772Z" fill="var(--fill-0, #B28C4D)"/>
<path id="Vector_3" d="M474.061 56.2154C470.894 56.2154 467.99 55.3445 465.351 53.6026C462.764 51.8079 460.705 49.3798 459.174 46.3183C457.643 43.204 456.877 39.6675 456.877 35.7087C456.877 31.7498 457.617 28.2133 459.095 25.099C460.573 21.9847 462.605 19.5302 465.192 17.7356C467.779 15.9409 470.735 15.0436 474.061 15.0436C477.018 15.0436 479.42 15.5978 481.267 16.7063C483.168 17.762 484.62 19.2399 485.623 21.1402C486.626 23.0404 487.312 25.2309 487.682 27.7118C488.104 30.1927 488.315 32.8583 488.315 35.7087C488.315 37.7145 488.104 39.905 487.682 42.2803C487.259 44.6028 486.52 46.8462 485.464 49.0103C484.461 51.1217 483.036 52.8636 481.188 54.236C479.34 55.5556 476.965 56.2154 474.061 56.2154ZM475.645 50.198C478.337 50.198 480.555 49.5382 482.297 48.2186C484.092 46.8989 485.411 45.1571 486.256 42.9929C487.101 40.776 487.523 38.3479 487.523 35.7087C487.523 32.8055 487.074 30.2719 486.177 28.1077C485.332 25.8908 484.012 24.1753 482.218 22.9612C480.475 21.6944 478.285 21.061 475.645 21.061C471.686 21.061 468.624 22.4598 466.459 25.2573C464.295 28.0021 463.212 31.4859 463.212 35.7087C463.212 38.5062 463.74 41.0135 464.796 43.2304C465.905 45.3946 467.383 47.1101 469.231 48.3769C471.131 49.591 473.269 50.198 475.645 50.198ZM487.523 0H493.858V55.4236H488.077C487.972 54.2624 487.84 52.89 487.682 51.3064C487.576 49.7229 487.523 48.4561 487.523 47.506V0Z" fill="var(--fill-0, #B28C4D)"/>
<path id="Vector_4" d="M397.302 56.2154C394.187 56.2154 391.31 55.3445 388.67 53.6026C386.083 51.8079 383.998 49.3799 382.414 46.3184C380.883 43.2041 380.118 39.6675 380.118 35.7087C380.118 31.7499 380.91 28.2133 382.493 25.099C384.077 21.9847 386.215 19.5303 388.908 17.7356C391.653 15.9409 394.715 15.0436 398.093 15.0436C401.789 15.0436 404.587 15.9937 406.487 17.894C408.441 19.7414 409.76 22.2223 410.447 25.3366C411.186 28.4508 411.555 31.9082 411.555 35.7087C411.555 37.7145 411.344 39.9051 410.922 42.2804C410.5 44.6029 409.76 46.8462 408.705 49.0104C407.702 51.1217 406.276 52.8636 404.428 54.236C402.581 55.5556 400.205 56.2154 397.302 56.2154ZM398.885 50.198C401.578 50.198 403.795 49.5382 405.537 48.2186C407.332 46.899 408.652 45.1571 409.497 42.9929C410.341 40.776 410.764 38.3479 410.764 35.7087C410.764 32.8056 410.315 30.2719 409.417 28.1077C408.573 25.8908 407.253 24.1753 405.458 22.9613C403.716 21.6944 401.525 21.061 398.885 21.061C394.926 21.061 391.864 22.4598 389.7 25.2574C387.535 28.0022 386.453 31.4859 386.453 35.7087C386.453 38.5063 386.981 41.0135 388.037 43.2305C389.145 45.3946 390.623 47.1101 392.471 48.377C394.372 49.591 396.51 50.198 398.885 50.198ZM410.764 15.8354H417.099V55.4237H411.318C411.318 55.4237 411.265 54.9486 411.159 53.9985C411.107 53.0484 411.027 51.9399 410.922 50.6731C410.816 49.4062 410.764 48.3506 410.764 47.506V15.8354Z" fill="var(--fill-0, #B28C4D)"/>
<path id="Vector_5" d="M322.225 49.1687C319.427 49.1687 316.761 48.5089 314.227 47.1893C311.746 45.8169 309.713 43.8639 308.129 41.3302C306.598 38.7966 305.833 35.7615 305.833 32.2249C305.833 28.6884 306.598 25.6533 308.129 23.1196C309.66 20.5332 311.666 18.5538 314.148 17.1814C316.629 15.7562 319.321 15.0436 322.225 15.0436C323.122 15.0436 323.967 15.1228 324.759 15.2811C325.603 15.3867 326.395 15.5714 327.134 15.8354H343.21V22.6446C340.939 22.6446 338.669 22.2223 336.399 21.3777C334.182 20.5332 332.282 19.6622 330.698 18.7649L330.381 18.4482C332.229 19.4511 333.733 20.6387 334.895 22.0111C336.109 23.3835 337.006 24.9407 337.587 26.6826C338.221 28.3717 338.537 30.2191 338.537 32.2249C338.537 35.7615 337.772 38.7966 336.241 41.3302C334.763 43.8639 332.783 45.8169 330.302 47.1893C327.821 48.5089 325.128 49.1687 322.225 49.1687ZM333.865 71.259V69.5171C333.865 66.7195 333.126 64.6873 331.648 63.4205C330.223 62.1537 328.058 61.5203 325.155 61.5203H317.236C315.494 61.5203 313.963 61.3619 312.643 61.0452C311.376 60.7813 310.32 60.359 309.475 59.7784C308.631 59.1978 307.997 58.4852 307.575 57.6406C307.153 56.7961 306.941 55.8459 306.941 54.7903C306.941 52.7845 307.549 51.2801 308.763 50.2772C309.977 49.2215 311.482 48.5617 313.277 48.2978C315.071 48.0339 316.787 48.0339 318.424 48.2978L322.225 49.1687C319.374 49.3271 317.157 49.6174 315.573 50.0397C314.042 50.4619 313.277 51.3593 313.277 52.7317C313.277 53.5234 313.567 54.1832 314.148 54.7111C314.781 55.1861 315.705 55.4237 316.919 55.4237H325.155C327.9 55.4237 330.407 55.7932 332.678 56.5321C334.948 57.3239 336.769 58.6171 338.142 60.4118C339.514 62.2593 340.2 64.7665 340.2 67.9336V71.259H333.865ZM322.225 43.2305C323.967 43.2305 325.577 42.8082 327.055 41.9636C328.586 41.1191 329.827 39.8787 330.777 38.2423C331.727 36.606 332.202 34.6002 332.202 32.2249C332.202 29.8496 331.727 27.8438 330.777 26.2075C329.88 24.5184 328.665 23.2516 327.134 22.407C325.603 21.5097 323.967 21.061 322.225 21.061C320.483 21.061 318.846 21.5097 317.315 22.407C315.784 23.2516 314.544 24.492 313.593 26.1283C312.643 27.7646 312.168 29.7968 312.168 32.2249C312.168 34.6002 312.643 36.606 313.593 38.2423C314.544 39.8787 315.784 41.1191 317.315 41.9636C318.846 42.8082 320.483 43.2305 322.225 43.2305Z" fill="var(--fill-0, #B28C4D)"/>
<path id="Vector_6" d="M249.093 56.2154C245.714 56.2154 242.547 55.3973 239.59 53.761C236.634 52.1246 234.232 49.7757 232.384 46.7142C230.589 43.6 229.692 39.9315 229.692 35.7087C229.692 31.4859 230.589 27.8438 232.384 24.7823C234.232 21.668 236.634 19.2664 239.59 17.5773C242.547 15.8882 245.714 15.0436 249.093 15.0436C252.472 15.0436 255.613 15.8882 258.516 17.5773C261.473 19.2664 263.848 21.668 265.643 24.7823C267.438 27.8438 268.336 31.4859 268.336 35.7087C268.336 39.9315 267.438 43.6 265.643 46.7142C263.848 49.7757 261.473 52.1246 258.516 53.761C255.613 55.3973 252.472 56.2154 249.093 56.2154ZM249.093 50.2772C251.31 50.2772 253.395 49.723 255.349 48.6145C257.302 47.506 258.886 45.8697 260.1 43.7055C261.367 41.4886 262.001 38.823 262.001 35.7087C262.001 32.5944 261.367 29.9552 260.1 27.791C258.886 25.5741 257.302 23.885 255.349 22.7237C253.395 21.5625 251.31 20.9818 249.093 20.9818C246.876 20.9818 244.764 21.5625 242.758 22.7237C240.805 23.8322 239.194 25.4949 237.927 27.7119C236.66 29.876 236.027 32.5416 236.027 35.7087C236.027 38.823 236.634 41.4886 237.848 43.7055C239.115 45.8697 240.752 47.506 242.758 48.6145C244.764 49.723 246.876 50.2772 249.093 50.2772Z" fill="var(--fill-0, #B28C4D)"/>
<path id="Vector_7" d="M177.547 49.9605H175.647L187.763 15.8354H194.652L179.606 55.4237H173.667L158.701 15.8354H165.59L177.547 49.9605Z" fill="var(--fill-0, #B28C4D)"/>
<path id="Vector_8" d="M99.3111 56.2154C96.1435 56.2154 93.24 55.3445 90.6004 53.6026C88.0136 51.8079 85.9547 49.3798 84.4237 46.3183C82.8928 43.204 82.1273 39.6675 82.1273 35.7087C82.1273 31.7498 82.8664 28.2133 84.3445 25.099C85.8227 21.9847 87.8552 19.5302 90.442 17.7356C93.0288 15.9409 95.9852 15.0436 99.3111 15.0436C102.267 15.0436 104.669 15.5978 106.517 16.7063C108.418 17.762 109.869 19.2399 110.872 21.1402C111.876 23.0404 112.562 25.2309 112.931 27.7118C113.354 30.1927 113.565 32.8583 113.565 35.7087C113.565 37.7145 113.354 39.905 112.931 42.2803C112.509 44.6028 111.77 46.8462 110.714 49.0103C109.711 51.1217 108.286 52.8636 106.438 54.236C104.59 55.5556 102.215 56.2154 99.3111 56.2154ZM100.895 50.198C103.587 50.198 105.804 49.5382 107.547 48.2186C109.342 46.8989 110.661 45.1571 111.506 42.9929C112.351 40.776 112.773 38.3479 112.773 35.7087C112.773 32.8055 112.324 30.2719 111.427 28.1077C110.582 25.8908 109.262 24.1753 107.467 22.9612C105.725 21.6944 103.534 21.061 100.895 21.061C96.9354 21.061 93.8735 22.4598 91.709 25.2573C89.5445 28.0021 88.4623 31.4859 88.4623 35.7087C88.4623 38.5062 88.9902 41.0135 90.0461 43.2304C91.1547 45.3946 92.6329 47.1101 94.4806 48.3769C96.3811 49.591 98.5192 50.198 100.895 50.198ZM112.773 0H119.108V55.4236H113.327C113.222 54.2624 113.09 52.89 112.931 51.3064C112.826 49.7229 112.773 48.4561 112.773 47.506V0Z" fill="var(--fill-0, #B28C4D)"/>
<path id="Vector_9" d="M10.4528 41.9636V36.0254H35.1594V41.9636H10.4528ZM0 55.4237L19.5594 3.95886H26.2112L45.929 55.4237H39.1188L21.935 8.86781H23.8356L6.65178 55.4237H0Z" fill="var(--fill-0, #B28C4D)"/>
</g></svg>
</svg>
