<svg xmlns="http://www.w3.org/2000/svg" viewBox="0 0 1271.15 160" width="1271.15" height="160" fill="none">
<g id="Wordmark">
<path id="Vector" d="M1160.63 160C1135.76 160 1115.03 157.967 1098.45 153.9C1082.02 149.833 1069.67 143.342 1061.37 134.427C1053.24 125.511 1049.17 113.78 1049.17 99.2341C1049.17 84.6878 1053.24 72.9569 1061.37 64.0415C1069.67 54.9696 1082.02 48.4003 1098.45 44.3336C1115.03 40.1105 1135.76 37.9989 1160.63 37.9989C1185.35 37.9989 1205.84 40.1105 1222.11 44.3336C1238.54 48.4003 1250.82 54.9696 1258.95 64.0415C1267.09 72.9569 1271.15 84.6878 1271.15 99.2341C1271.15 113.78 1267.09 125.511 1258.95 134.427C1250.82 143.342 1238.54 149.833 1222.11 153.9C1205.84 157.967 1185.35 160 1160.63 160ZM1160.63 125.98C1172.21 125.98 1181.91 125.042 1189.73 123.165C1197.55 121.132 1203.49 118.16 1207.56 114.25C1211.63 110.183 1213.66 105.178 1213.66 99.2341C1213.66 93.2904 1211.63 88.2853 1207.56 84.2186C1203.65 80.1519 1197.79 77.1018 1189.96 75.0685C1182.14 73.0351 1172.36 72.0184 1160.63 72.0184C1149.06 72.0184 1139.2 73.0351 1131.07 75.0685C1123.09 77.1018 1116.99 80.1519 1112.76 84.2186C1108.7 88.1288 1106.66 93.134 1106.66 99.2341C1106.66 105.178 1108.7 110.183 1112.76 114.25C1116.83 118.16 1122.85 121.132 1130.83 123.165C1138.97 125.042 1148.9 125.98 1160.63 125.98Z" fill="var(--fill-0, #1A1A19)"/>
<path id="Vector_2" d="M939.173 106.507C939.173 117.769 935.653 127.388 928.614 135.365C921.574 143.342 910.467 149.442 895.293 153.665C880.119 157.888 860.408 160 836.161 160C811.914 160 791.265 158.045 774.213 154.135C757.318 150.224 744.413 143.811 735.496 134.896C726.736 125.98 722.355 114.093 722.355 99.2341C722.355 84.375 726.736 72.4877 735.496 63.5722C744.413 54.5003 757.318 48.0092 774.213 44.099C791.265 40.0323 811.914 37.9989 836.161 37.9989C860.408 37.9989 880.041 40.1105 895.058 44.3336C910.076 48.5567 921.105 54.6567 928.144 62.6337C935.184 70.6107 938.782 80.1519 938.938 91.2571H887.315C884.812 85.157 879.18 80.4647 870.42 77.18C861.66 73.739 850.24 72.0184 836.161 72.0184C824.741 72.0184 814.808 72.8787 806.36 74.5992C797.913 76.1634 791.343 78.9006 786.65 82.8109C782.113 86.7211 779.845 92.1956 779.845 99.2341C779.845 106.116 782.113 111.512 786.65 115.423C791.186 119.333 797.678 122.07 806.126 123.634C814.573 125.198 824.585 125.98 836.161 125.98C850.24 125.98 861.66 124.338 870.42 121.054C879.337 117.612 885.047 112.764 887.55 106.507H939.173Z" fill="var(--fill-0, #1A1A19)"/>
<path id="Vector_3" d="M326.837 41.5182H383.153V156.481H326.837V41.5182ZM443.693 84.9224C433.525 84.9224 424.217 85.8609 415.77 87.7378C407.322 89.6148 400.126 91.8827 394.182 94.5417C388.237 97.0443 383.779 99.5469 380.807 102.049L380.337 90.7878C380.807 87.5032 382.058 83.6711 384.092 79.2916C386.125 74.7556 388.863 70.1415 392.304 65.4492C395.746 60.6004 399.97 56.1427 404.976 52.076C409.982 47.8528 415.691 44.49 422.105 41.9874C428.675 39.3284 435.871 37.9989 443.693 37.9989V84.9224Z" fill="var(--fill-0, #1A1A19)"/>
<path id="Vector_4" d="M160.97 115.188H216.348C214.94 124.26 210.404 132.159 202.738 138.884C195.229 145.61 184.201 150.85 169.653 154.604C155.261 158.201 136.88 160 114.51 160C90.8881 160 70.4735 158.123 53.2657 154.369C36.2144 150.615 23.074 144.281 13.8444 135.365C4.6148 126.45 0 114.406 0 99.2341C0 84.2185 4.45837 72.253 13.3751 63.3376C22.4483 54.2657 35.5105 47.7746 52.5618 43.8643C69.6131 39.954 90.2623 37.9989 114.51 37.9989C138.288 37.9989 157.764 40.1104 172.938 44.3335C188.112 48.5567 199.297 55.4388 206.493 64.9799C213.689 74.3646 217.13 87.1122 216.817 103.223H57.2548C58.037 107.289 60.227 111.043 63.825 114.484C67.5794 117.925 73.2893 120.741 80.9545 122.93C88.7762 124.964 99.1791 125.98 112.163 125.98C125.616 125.98 136.645 125.042 145.249 123.165C154.009 121.288 159.25 118.629 160.97 115.188ZM112.163 72.0184C95.5811 72.0184 82.91 73.8172 74.1497 77.4146C65.5458 81.0121 60.4617 84.6096 58.8974 88.207H162.144C161.049 84.1403 156.669 80.4647 149.003 77.18C141.338 73.7389 129.058 72.0184 112.163 72.0184Z" fill="var(--fill-0, #1A1A19)"/>
<g id="I">
<path id="Vector_5" d="M554.538 41.5184H610.854V156.481H554.538V41.5184Z" fill="var(--fill-0, #1A1A19)"/>
<path id="pingo" d="M583.282 29.3272C589.628 29.3272 594.945 28.8172 599.234 27.7971C603.522 26.692 606.781 25.0769 609.011 22.9517C611.241 20.7416 612.356 18.0214 612.356 14.7911C612.356 11.5609 611.241 8.84066 609.011 6.6305C606.867 4.42033 603.651 2.76271 599.362 1.65763C595.074 0.552542 589.714 0 583.282 0C576.935 0 571.532 0.552542 567.072 1.65763C562.698 2.76271 559.353 4.42033 557.038 6.6305C554.808 8.75565 553.693 11.4759 553.693 14.7911C553.693 18.0214 554.808 20.7416 557.038 22.9517C559.268 25.0769 562.569 26.692 566.943 27.7971C571.403 28.8172 576.849 29.3272 583.282 29.3272Z" fill="var(--fill-0, #1A1A19)"/>
</g>
</g>
</svg>
