<svg xmlns="http://www.w3.org/2000/svg" viewBox="0 0 2784 2784" width="2784" height="2784" fill="none">
<path d="M1392.17 2348H1391.17C1137.62 2348 894.46 2247.28 715.176 2067.99C556.337 1909.15 459.173 1700.18 439.075 1478.26H1044.17V1304H439.233C459.68 1082.73 556.752 874.428 715.176 716.005C894.46 536.72 1137.62 436 1391.17 436H1392.17V260H1391.17C1090.95 260 803.017 379.264 590.726 591.556C399.275 783.007 283.489 1035.97 262.6 1304H2.91188C48.3108 576.772 652.501 1.00004 1391.17 1C2159.4 1.00003 2782.17 623.772 2782.17 1392C2782.17 2160.23 2159.4 2783 1391.17 2783C651.912 2783 47.3466 2206.31 2.80348 1478.26H262.464C282.986 1746.93 398.861 2000.58 590.726 2192.44C803.017 2404.74 1090.95 2524 1391.17 2524H1392.17V2348Z" fill="#F3F2EE"/>
</svg>
